<mxfile host="app.diagrams.net" modified="2023-09-09T22:41:48.397Z" agent="Mozilla/5.0 (Windows NT 10.0; Win64; x64; rv:109.0) Gecko/20100101 Firefox/117.0" etag="7MDbYLr5DOmUh9O4RI21" version="21.7.4" type="device">
  <diagram name="Page-1" id="3gdtpHTVhnwvLf2Ly85Q">
    <mxGraphModel dx="1434" dy="1874" grid="1" gridSize="10" guides="1" tooltips="1" connect="1" arrows="1" fold="1" page="1" pageScale="1" pageWidth="850" pageHeight="1100" math="0" shadow="0">
      <root>
        <mxCell id="0" />
        <mxCell id="1" parent="0" />
        <mxCell id="9sx4zEGCyHIFjwYVXM-M-10" style="edgeStyle=orthogonalEdgeStyle;rounded=0;orthogonalLoop=1;jettySize=auto;html=1;entryX=0.5;entryY=0;entryDx=0;entryDy=0;" parent="1" source="9sx4zEGCyHIFjwYVXM-M-9" edge="1">
          <mxGeometry relative="1" as="geometry">
            <mxPoint x="280" y="200" as="targetPoint" />
          </mxGeometry>
        </mxCell>
        <mxCell id="9sx4zEGCyHIFjwYVXM-M-9" value="scanSwitch" style="shape=process;whiteSpace=wrap;html=1;backgroundOutline=1;" parent="1" vertex="1">
          <mxGeometry x="160" y="120" width="240" height="40" as="geometry" />
        </mxCell>
        <mxCell id="9sx4zEGCyHIFjwYVXM-M-28" style="edgeStyle=orthogonalEdgeStyle;rounded=0;orthogonalLoop=1;jettySize=auto;html=1;exitX=0.5;exitY=1;exitDx=0;exitDy=0;entryX=0.5;entryY=0;entryDx=0;entryDy=0;" parent="1" source="9sx4zEGCyHIFjwYVXM-M-11" target="9sx4zEGCyHIFjwYVXM-M-9" edge="1">
          <mxGeometry relative="1" as="geometry" />
        </mxCell>
        <mxCell id="9sx4zEGCyHIFjwYVXM-M-11" value="scanPec12" style="shape=process;whiteSpace=wrap;html=1;backgroundOutline=1;" parent="1" vertex="1">
          <mxGeometry x="160" y="40" width="240" height="40" as="geometry" />
        </mxCell>
        <mxCell id="ccMroyFSji1wcShtdkb7-33" style="edgeStyle=orthogonalEdgeStyle;rounded=0;orthogonalLoop=1;jettySize=auto;html=1;exitX=0.5;exitY=1;exitDx=0;exitDy=0;entryX=0.5;entryY=0;entryDx=0;entryDy=0;" edge="1" parent="1" source="9sx4zEGCyHIFjwYVXM-M-13" target="ccMroyFSji1wcShtdkb7-21">
          <mxGeometry relative="1" as="geometry" />
        </mxCell>
        <mxCell id="9sx4zEGCyHIFjwYVXM-M-13" value="menuManagementProcess" style="shape=process;whiteSpace=wrap;html=1;backgroundOutline=1;" parent="1" vertex="1">
          <mxGeometry x="160" y="280" width="240" height="40" as="geometry" />
        </mxCell>
        <mxCell id="9sx4zEGCyHIFjwYVXM-M-16" style="edgeStyle=orthogonalEdgeStyle;rounded=0;orthogonalLoop=1;jettySize=auto;html=1;exitX=0.5;exitY=1;exitDx=0;exitDy=0;entryX=0.5;entryY=0;entryDx=0;entryDy=0;" parent="1" source="9sx4zEGCyHIFjwYVXM-M-14" target="9sx4zEGCyHIFjwYVXM-M-13" edge="1">
          <mxGeometry relative="1" as="geometry" />
        </mxCell>
        <mxCell id="9sx4zEGCyHIFjwYVXM-M-33" value="Yes" style="edgeLabel;html=1;align=center;verticalAlign=middle;resizable=0;points=[];" parent="9sx4zEGCyHIFjwYVXM-M-16" vertex="1" connectable="0">
          <mxGeometry x="-0.2071" y="-1" relative="1" as="geometry">
            <mxPoint as="offset" />
          </mxGeometry>
        </mxCell>
        <mxCell id="9sx4zEGCyHIFjwYVXM-M-21" style="edgeStyle=orthogonalEdgeStyle;rounded=0;orthogonalLoop=1;jettySize=auto;html=1;exitX=1;exitY=0.5;exitDx=0;exitDy=0;entryX=0.75;entryY=0;entryDx=0;entryDy=0;" parent="1" source="9sx4zEGCyHIFjwYVXM-M-14" edge="1" target="ccMroyFSji1wcShtdkb7-21">
          <mxGeometry relative="1" as="geometry">
            <mxPoint x="310" y="440" as="targetPoint" />
            <Array as="points">
              <mxPoint x="420" y="220" />
              <mxPoint x="420" y="340" />
              <mxPoint x="340" y="340" />
            </Array>
          </mxGeometry>
        </mxCell>
        <mxCell id="9sx4zEGCyHIFjwYVXM-M-34" value="&lt;div&gt;No&lt;/div&gt;" style="edgeLabel;html=1;align=center;verticalAlign=middle;resizable=0;points=[];" parent="9sx4zEGCyHIFjwYVXM-M-21" vertex="1" connectable="0">
          <mxGeometry x="-0.5292" y="1" relative="1" as="geometry">
            <mxPoint y="6" as="offset" />
          </mxGeometry>
        </mxCell>
        <mxCell id="9sx4zEGCyHIFjwYVXM-M-14" value="if counter == 100ms" style="rhombus;whiteSpace=wrap;html=1;" parent="1" vertex="1">
          <mxGeometry x="160" y="200" width="240" height="40" as="geometry" />
        </mxCell>
        <mxCell id="9sx4zEGCyHIFjwYVXM-M-23" value="&lt;h1&gt;Notes&lt;br&gt;&lt;/h1&gt;&lt;p&gt;- The service tasks is executed each 1ms (10kHz)&lt;br&gt;&lt;/p&gt;" style="text;html=1;strokeColor=none;fillColor=none;spacing=5;spacingTop=-20;whiteSpace=wrap;overflow=hidden;rounded=0;" parent="1" vertex="1">
          <mxGeometry x="380" y="-350" width="190" height="120" as="geometry" />
        </mxCell>
        <mxCell id="9sx4zEGCyHIFjwYVXM-M-35" style="edgeStyle=orthogonalEdgeStyle;rounded=0;orthogonalLoop=1;jettySize=auto;html=1;exitX=0.5;exitY=1;exitDx=0;exitDy=0;entryX=0.5;entryY=0;entryDx=0;entryDy=0;" parent="1" source="9sx4zEGCyHIFjwYVXM-M-24" target="9sx4zEGCyHIFjwYVXM-M-26" edge="1">
          <mxGeometry relative="1" as="geometry" />
        </mxCell>
        <mxCell id="9sx4zEGCyHIFjwYVXM-M-24" value="sequenceManagementProcess" style="shape=process;whiteSpace=wrap;html=1;backgroundOutline=1;" parent="1" vertex="1">
          <mxGeometry x="160" y="-120" width="240" height="40" as="geometry" />
        </mxCell>
        <mxCell id="9sx4zEGCyHIFjwYVXM-M-27" style="edgeStyle=orthogonalEdgeStyle;rounded=0;orthogonalLoop=1;jettySize=auto;html=1;exitX=0.5;exitY=1;exitDx=0;exitDy=0;entryX=0.5;entryY=0;entryDx=0;entryDy=0;" parent="1" source="9sx4zEGCyHIFjwYVXM-M-26" target="9sx4zEGCyHIFjwYVXM-M-11" edge="1">
          <mxGeometry relative="1" as="geometry" />
        </mxCell>
        <mxCell id="9sx4zEGCyHIFjwYVXM-M-30" value="Yes" style="edgeLabel;html=1;align=center;verticalAlign=middle;resizable=0;points=[];" parent="9sx4zEGCyHIFjwYVXM-M-27" vertex="1" connectable="0">
          <mxGeometry x="-0.2071" relative="1" as="geometry">
            <mxPoint y="4" as="offset" />
          </mxGeometry>
        </mxCell>
        <mxCell id="9sx4zEGCyHIFjwYVXM-M-29" style="edgeStyle=orthogonalEdgeStyle;rounded=0;orthogonalLoop=1;jettySize=auto;html=1;exitX=1;exitY=0.5;exitDx=0;exitDy=0;entryX=1;entryY=0;entryDx=0;entryDy=0;" parent="1" source="9sx4zEGCyHIFjwYVXM-M-26" edge="1">
          <mxGeometry relative="1" as="geometry">
            <Array as="points">
              <mxPoint x="420" y="-20" />
              <mxPoint x="420" y="180" />
              <mxPoint x="340" y="180" />
            </Array>
            <mxPoint x="340" y="210" as="targetPoint" />
          </mxGeometry>
        </mxCell>
        <mxCell id="9sx4zEGCyHIFjwYVXM-M-31" value="No" style="edgeLabel;html=1;align=center;verticalAlign=middle;resizable=0;points=[];" parent="9sx4zEGCyHIFjwYVXM-M-29" vertex="1" connectable="0">
          <mxGeometry x="-0.658" y="1" relative="1" as="geometry">
            <mxPoint y="5" as="offset" />
          </mxGeometry>
        </mxCell>
        <mxCell id="9sx4zEGCyHIFjwYVXM-M-26" value="if counter == 1ms" style="rhombus;whiteSpace=wrap;html=1;" parent="1" vertex="1">
          <mxGeometry x="160" y="-40" width="240" height="40" as="geometry" />
        </mxCell>
        <mxCell id="ccMroyFSji1wcShtdkb7-27" style="edgeStyle=orthogonalEdgeStyle;rounded=0;orthogonalLoop=1;jettySize=auto;html=1;entryX=0.5;entryY=0;entryDx=0;entryDy=0;" edge="1" parent="1" source="9sx4zEGCyHIFjwYVXM-M-37" target="ccMroyFSji1wcShtdkb7-4">
          <mxGeometry relative="1" as="geometry" />
        </mxCell>
        <mxCell id="9sx4zEGCyHIFjwYVXM-M-37" value="readDataFromEeprom" style="shape=process;whiteSpace=wrap;html=1;backgroundOutline=1;" parent="1" vertex="1">
          <mxGeometry x="520" y="-120" width="240" height="40" as="geometry" />
        </mxCell>
        <mxCell id="9sx4zEGCyHIFjwYVXM-M-38" value="&lt;font style=&quot;font-size: 18px;&quot;&gt;&lt;b&gt;SERVICE TASKS&lt;/b&gt;&lt;/font&gt;" style="text;html=1;strokeColor=none;fillColor=none;align=center;verticalAlign=middle;whiteSpace=wrap;rounded=0;" parent="1" vertex="1">
          <mxGeometry x="180" y="-260" width="210" height="30" as="geometry" />
        </mxCell>
        <mxCell id="9sx4zEGCyHIFjwYVXM-M-40" value="&lt;font style=&quot;font-size: 18px;&quot;&gt;&lt;b&gt;INITIALIZATION&lt;br&gt;&lt;/b&gt;&lt;/font&gt;" style="text;html=1;strokeColor=none;fillColor=none;align=center;verticalAlign=middle;whiteSpace=wrap;rounded=0;" parent="1" vertex="1">
          <mxGeometry x="520" y="-260" width="240" height="30" as="geometry" />
        </mxCell>
        <mxCell id="ccMroyFSji1wcShtdkb7-28" style="edgeStyle=orthogonalEdgeStyle;rounded=0;orthogonalLoop=1;jettySize=auto;html=1;exitX=0.5;exitY=1;exitDx=0;exitDy=0;entryX=0.5;entryY=0;entryDx=0;entryDy=0;" edge="1" parent="1" source="9sx4zEGCyHIFjwYVXM-M-41" target="ccMroyFSji1wcShtdkb7-7">
          <mxGeometry relative="1" as="geometry" />
        </mxCell>
        <mxCell id="9sx4zEGCyHIFjwYVXM-M-41" value="PLIB_MCPWM_Enable" style="shape=process;whiteSpace=wrap;html=1;backgroundOutline=1;" parent="1" vertex="1">
          <mxGeometry x="520" y="40" width="240" height="40" as="geometry" />
        </mxCell>
        <mxCell id="ccMroyFSji1wcShtdkb7-31" style="edgeStyle=orthogonalEdgeStyle;rounded=0;orthogonalLoop=1;jettySize=auto;html=1;exitX=0.5;exitY=1;exitDx=0;exitDy=0;entryX=0.5;entryY=0;entryDx=0;entryDy=0;" edge="1" parent="1" source="9sx4zEGCyHIFjwYVXM-M-42" target="ccMroyFSji1wcShtdkb7-10">
          <mxGeometry relative="1" as="geometry" />
        </mxCell>
        <mxCell id="9sx4zEGCyHIFjwYVXM-M-42" value="DRV_TMR1_Start&lt;br&gt;DRV_TMR2_Start" style="shape=process;whiteSpace=wrap;html=1;backgroundOutline=1;" parent="1" vertex="1">
          <mxGeometry x="520" y="280" width="240" height="40" as="geometry" />
        </mxCell>
        <mxCell id="9sx4zEGCyHIFjwYVXM-M-48" style="edgeStyle=orthogonalEdgeStyle;rounded=0;orthogonalLoop=1;jettySize=auto;html=1;entryX=0.5;entryY=0;entryDx=0;entryDy=0;" parent="1" source="9sx4zEGCyHIFjwYVXM-M-46" target="9sx4zEGCyHIFjwYVXM-M-47" edge="1">
          <mxGeometry relative="1" as="geometry" />
        </mxCell>
        <mxCell id="9sx4zEGCyHIFjwYVXM-M-46" value="APP_UpdateAppState --&amp;gt; WAIT" style="shape=process;whiteSpace=wrap;html=1;backgroundOutline=1;" parent="1" vertex="1">
          <mxGeometry x="160" y="440" width="240" height="40" as="geometry" />
        </mxCell>
        <mxCell id="9sx4zEGCyHIFjwYVXM-M-47" value="END" style="ellipse;whiteSpace=wrap;html=1;aspect=fixed;fillColor=#000000;fontColor=#FFFFFF;" parent="1" vertex="1">
          <mxGeometry x="260" y="520" width="40" height="40" as="geometry" />
        </mxCell>
        <mxCell id="9sx4zEGCyHIFjwYVXM-M-50" style="edgeStyle=orthogonalEdgeStyle;rounded=0;orthogonalLoop=1;jettySize=auto;html=1;exitX=0.5;exitY=1;exitDx=0;exitDy=0;entryX=0.5;entryY=0;entryDx=0;entryDy=0;" parent="1" source="9sx4zEGCyHIFjwYVXM-M-49" target="9sx4zEGCyHIFjwYVXM-M-24" edge="1">
          <mxGeometry relative="1" as="geometry" />
        </mxCell>
        <mxCell id="9sx4zEGCyHIFjwYVXM-M-49" value="START" style="ellipse;whiteSpace=wrap;html=1;aspect=fixed;fillColor=#000000;fontColor=#FFFFFF;" parent="1" vertex="1">
          <mxGeometry x="260" y="-200" width="40" height="40" as="geometry" />
        </mxCell>
        <mxCell id="ccMroyFSji1wcShtdkb7-3" style="edgeStyle=orthogonalEdgeStyle;rounded=0;orthogonalLoop=1;jettySize=auto;html=1;entryX=0.5;entryY=0;entryDx=0;entryDy=0;" edge="1" parent="1" source="ccMroyFSji1wcShtdkb7-1" target="9sx4zEGCyHIFjwYVXM-M-37">
          <mxGeometry relative="1" as="geometry" />
        </mxCell>
        <mxCell id="ccMroyFSji1wcShtdkb7-1" value="START" style="ellipse;whiteSpace=wrap;html=1;aspect=fixed;fillColor=#000000;fontColor=#FFFFFF;" vertex="1" parent="1">
          <mxGeometry x="620" y="-200" width="40" height="40" as="geometry" />
        </mxCell>
        <mxCell id="ccMroyFSji1wcShtdkb7-14" style="edgeStyle=orthogonalEdgeStyle;rounded=0;orthogonalLoop=1;jettySize=auto;html=1;exitX=0.5;exitY=1;exitDx=0;exitDy=0;entryX=0.5;entryY=0;entryDx=0;entryDy=0;" edge="1" parent="1" source="ccMroyFSji1wcShtdkb7-4" target="9sx4zEGCyHIFjwYVXM-M-41">
          <mxGeometry relative="1" as="geometry" />
        </mxCell>
        <mxCell id="ccMroyFSji1wcShtdkb7-4" value="initStepperMotor" style="shape=process;whiteSpace=wrap;html=1;backgroundOutline=1;" vertex="1" parent="1">
          <mxGeometry x="520" y="-40" width="240" height="40" as="geometry" />
        </mxCell>
        <mxCell id="ccMroyFSji1wcShtdkb7-29" style="edgeStyle=orthogonalEdgeStyle;rounded=0;orthogonalLoop=1;jettySize=auto;html=1;exitX=0.5;exitY=1;exitDx=0;exitDy=0;entryX=0.5;entryY=0;entryDx=0;entryDy=0;" edge="1" parent="1" source="ccMroyFSji1wcShtdkb7-7" target="ccMroyFSji1wcShtdkb7-9">
          <mxGeometry relative="1" as="geometry" />
        </mxCell>
        <mxCell id="ccMroyFSji1wcShtdkb7-7" value="initLcd" style="shape=process;whiteSpace=wrap;html=1;backgroundOutline=1;" vertex="1" parent="1">
          <mxGeometry x="520" y="120" width="240" height="40" as="geometry" />
        </mxCell>
        <mxCell id="ccMroyFSji1wcShtdkb7-30" style="edgeStyle=orthogonalEdgeStyle;rounded=0;orthogonalLoop=1;jettySize=auto;html=1;exitX=0.5;exitY=1;exitDx=0;exitDy=0;entryX=0.5;entryY=0;entryDx=0;entryDy=0;" edge="1" parent="1" source="ccMroyFSji1wcShtdkb7-9" target="9sx4zEGCyHIFjwYVXM-M-42">
          <mxGeometry relative="1" as="geometry" />
        </mxCell>
        <mxCell id="ccMroyFSji1wcShtdkb7-9" value="printLcdInit" style="shape=process;whiteSpace=wrap;html=1;backgroundOutline=1;" vertex="1" parent="1">
          <mxGeometry x="520" y="200" width="240" height="40" as="geometry" />
        </mxCell>
        <mxCell id="ccMroyFSji1wcShtdkb7-32" style="edgeStyle=orthogonalEdgeStyle;rounded=0;orthogonalLoop=1;jettySize=auto;html=1;exitX=0.5;exitY=1;exitDx=0;exitDy=0;entryX=0.5;entryY=0;entryDx=0;entryDy=0;" edge="1" parent="1" source="ccMroyFSji1wcShtdkb7-10" target="ccMroyFSji1wcShtdkb7-11">
          <mxGeometry relative="1" as="geometry" />
        </mxCell>
        <mxCell id="ccMroyFSji1wcShtdkb7-10" value="printMainMenu" style="shape=process;whiteSpace=wrap;html=1;backgroundOutline=1;" vertex="1" parent="1">
          <mxGeometry x="520" y="360" width="240" height="40" as="geometry" />
        </mxCell>
        <mxCell id="ccMroyFSji1wcShtdkb7-13" style="edgeStyle=orthogonalEdgeStyle;rounded=0;orthogonalLoop=1;jettySize=auto;html=1;entryX=0.5;entryY=0;entryDx=0;entryDy=0;" edge="1" parent="1" source="ccMroyFSji1wcShtdkb7-11" target="ccMroyFSji1wcShtdkb7-12">
          <mxGeometry relative="1" as="geometry" />
        </mxCell>
        <mxCell id="ccMroyFSji1wcShtdkb7-11" value="APP_UpdateAppState --&amp;gt; WAIT" style="shape=process;whiteSpace=wrap;html=1;backgroundOutline=1;" vertex="1" parent="1">
          <mxGeometry x="520" y="440" width="240" height="40" as="geometry" />
        </mxCell>
        <mxCell id="ccMroyFSji1wcShtdkb7-12" value="END" style="ellipse;whiteSpace=wrap;html=1;aspect=fixed;fillColor=#000000;fontColor=#FFFFFF;" vertex="1" parent="1">
          <mxGeometry x="620" y="520" width="40" height="40" as="geometry" />
        </mxCell>
        <mxCell id="ccMroyFSji1wcShtdkb7-22" style="edgeStyle=orthogonalEdgeStyle;rounded=0;orthogonalLoop=1;jettySize=auto;html=1;exitX=0.5;exitY=1;exitDx=0;exitDy=0;entryX=0.5;entryY=0;entryDx=0;entryDy=0;" edge="1" parent="1" source="ccMroyFSji1wcShtdkb7-21" target="9sx4zEGCyHIFjwYVXM-M-46">
          <mxGeometry relative="1" as="geometry" />
        </mxCell>
        <mxCell id="ccMroyFSji1wcShtdkb7-21" value="&lt;div&gt;SPI_DoTasks&lt;/div&gt;" style="shape=process;whiteSpace=wrap;html=1;backgroundOutline=1;" vertex="1" parent="1">
          <mxGeometry x="160" y="360" width="240" height="40" as="geometry" />
        </mxCell>
        <mxCell id="ccMroyFSji1wcShtdkb7-23" value="" style="ellipse;whiteSpace=wrap;html=1;aspect=fixed;" vertex="1" parent="1">
          <mxGeometry x="160" y="840" width="80" height="80" as="geometry" />
        </mxCell>
        <mxCell id="ccMroyFSji1wcShtdkb7-25" style="edgeStyle=orthogonalEdgeStyle;rounded=0;orthogonalLoop=1;jettySize=auto;html=1;entryX=0;entryY=0.5;entryDx=0;entryDy=0;" edge="1" parent="1" source="ccMroyFSji1wcShtdkb7-24" target="ccMroyFSji1wcShtdkb7-23">
          <mxGeometry relative="1" as="geometry" />
        </mxCell>
        <mxCell id="ccMroyFSji1wcShtdkb7-24" value="START" style="ellipse;whiteSpace=wrap;html=1;aspect=fixed;fillColor=#000000;fontColor=#FFFFFF;" vertex="1" parent="1">
          <mxGeometry x="80" y="860" width="40" height="40" as="geometry" />
        </mxCell>
        <mxCell id="ccMroyFSji1wcShtdkb7-37" style="edgeStyle=orthogonalEdgeStyle;rounded=0;orthogonalLoop=1;jettySize=auto;html=1;entryX=0.5;entryY=0;entryDx=0;entryDy=0;" edge="1" parent="1" source="ccMroyFSji1wcShtdkb7-35">
          <mxGeometry relative="1" as="geometry">
            <mxPoint x="1000" y="-120" as="targetPoint" />
          </mxGeometry>
        </mxCell>
        <mxCell id="ccMroyFSji1wcShtdkb7-35" value="START" style="ellipse;whiteSpace=wrap;html=1;aspect=fixed;fillColor=#000000;fontColor=#FFFFFF;" vertex="1" parent="1">
          <mxGeometry x="980" y="-200" width="40" height="40" as="geometry" />
        </mxCell>
        <mxCell id="ccMroyFSji1wcShtdkb7-38" value="&lt;font style=&quot;font-size: 18px;&quot;&gt;&lt;b&gt;&amp;nbsp;Timer5 ID4&lt;br&gt;&lt;/b&gt;&lt;/font&gt;" style="text;html=1;strokeColor=none;fillColor=none;align=center;verticalAlign=middle;whiteSpace=wrap;rounded=0;" vertex="1" parent="1">
          <mxGeometry x="880" y="-270" width="240" height="30" as="geometry" />
        </mxCell>
        <mxCell id="ccMroyFSji1wcShtdkb7-41" style="edgeStyle=orthogonalEdgeStyle;rounded=0;orthogonalLoop=1;jettySize=auto;html=1;exitX=0.5;exitY=1;exitDx=0;exitDy=0;entryX=0.5;entryY=0;entryDx=0;entryDy=0;" edge="1" parent="1" source="ccMroyFSji1wcShtdkb7-39" target="ccMroyFSji1wcShtdkb7-40">
          <mxGeometry relative="1" as="geometry" />
        </mxCell>
        <mxCell id="ccMroyFSji1wcShtdkb7-42" value="Yes" style="edgeLabel;html=1;align=center;verticalAlign=middle;resizable=0;points=[];" vertex="1" connectable="0" parent="ccMroyFSji1wcShtdkb7-41">
          <mxGeometry x="-0.125" y="2" relative="1" as="geometry">
            <mxPoint as="offset" />
          </mxGeometry>
        </mxCell>
        <mxCell id="ccMroyFSji1wcShtdkb7-49" style="edgeStyle=orthogonalEdgeStyle;rounded=0;orthogonalLoop=1;jettySize=auto;html=1;exitX=1;exitY=0.5;exitDx=0;exitDy=0;entryX=1;entryY=0;entryDx=0;entryDy=0;" edge="1" parent="1" source="ccMroyFSji1wcShtdkb7-39" target="ccMroyFSji1wcShtdkb7-45">
          <mxGeometry relative="1" as="geometry">
            <Array as="points">
              <mxPoint x="1140" y="-100" />
              <mxPoint x="1140" y="20" />
              <mxPoint x="1060" y="20" />
            </Array>
          </mxGeometry>
        </mxCell>
        <mxCell id="ccMroyFSji1wcShtdkb7-50" value="No" style="edgeLabel;html=1;align=center;verticalAlign=middle;resizable=0;points=[];" vertex="1" connectable="0" parent="ccMroyFSji1wcShtdkb7-49">
          <mxGeometry x="-0.5467" y="-1" relative="1" as="geometry">
            <mxPoint as="offset" />
          </mxGeometry>
        </mxCell>
        <mxCell id="ccMroyFSji1wcShtdkb7-39" value="if counter == 0ms" style="rhombus;whiteSpace=wrap;html=1;" vertex="1" parent="1">
          <mxGeometry x="880" y="-120" width="240" height="40" as="geometry" />
        </mxCell>
        <mxCell id="ccMroyFSji1wcShtdkb7-48" style="edgeStyle=orthogonalEdgeStyle;rounded=0;orthogonalLoop=1;jettySize=auto;html=1;exitX=0.5;exitY=1;exitDx=0;exitDy=0;entryX=0.5;entryY=0;entryDx=0;entryDy=0;" edge="1" parent="1" source="ccMroyFSji1wcShtdkb7-40" target="ccMroyFSji1wcShtdkb7-45">
          <mxGeometry relative="1" as="geometry" />
        </mxCell>
        <mxCell id="ccMroyFSji1wcShtdkb7-40" value="turn on selected power LED" style="shape=process;whiteSpace=wrap;html=1;backgroundOutline=1;" vertex="1" parent="1">
          <mxGeometry x="880" y="-40" width="240" height="40" as="geometry" />
        </mxCell>
        <mxCell id="ccMroyFSji1wcShtdkb7-52" style="edgeStyle=orthogonalEdgeStyle;rounded=0;orthogonalLoop=1;jettySize=auto;html=1;exitX=0.5;exitY=1;exitDx=0;exitDy=0;entryX=0.5;entryY=0;entryDx=0;entryDy=0;" edge="1" parent="1" source="ccMroyFSji1wcShtdkb7-43" target="ccMroyFSji1wcShtdkb7-51">
          <mxGeometry relative="1" as="geometry" />
        </mxCell>
        <mxCell id="ccMroyFSji1wcShtdkb7-43" value="focus and trigger the camera" style="shape=process;whiteSpace=wrap;html=1;backgroundOutline=1;" vertex="1" parent="1">
          <mxGeometry x="880" y="120" width="240" height="40" as="geometry" />
        </mxCell>
        <mxCell id="ccMroyFSji1wcShtdkb7-46" style="edgeStyle=orthogonalEdgeStyle;rounded=0;orthogonalLoop=1;jettySize=auto;html=1;exitX=0.5;exitY=1;exitDx=0;exitDy=0;entryX=0.5;entryY=0;entryDx=0;entryDy=0;" edge="1" parent="1" source="ccMroyFSji1wcShtdkb7-45" target="ccMroyFSji1wcShtdkb7-43">
          <mxGeometry relative="1" as="geometry" />
        </mxCell>
        <mxCell id="ccMroyFSji1wcShtdkb7-47" value="&lt;div&gt;Yes&lt;/div&gt;" style="edgeLabel;html=1;align=center;verticalAlign=middle;resizable=0;points=[];" vertex="1" connectable="0" parent="ccMroyFSji1wcShtdkb7-46">
          <mxGeometry x="-0.3333" y="1" relative="1" as="geometry">
            <mxPoint as="offset" />
          </mxGeometry>
        </mxCell>
        <mxCell id="ccMroyFSji1wcShtdkb7-54" style="edgeStyle=orthogonalEdgeStyle;rounded=0;orthogonalLoop=1;jettySize=auto;html=1;exitX=1;exitY=0.5;exitDx=0;exitDy=0;entryX=1;entryY=0;entryDx=0;entryDy=0;" edge="1" parent="1" source="ccMroyFSji1wcShtdkb7-45" target="ccMroyFSji1wcShtdkb7-51">
          <mxGeometry relative="1" as="geometry">
            <Array as="points">
              <mxPoint x="1140" y="60" />
              <mxPoint x="1140" y="180" />
              <mxPoint x="1060" y="180" />
            </Array>
          </mxGeometry>
        </mxCell>
        <mxCell id="ccMroyFSji1wcShtdkb7-55" value="No" style="edgeLabel;html=1;align=center;verticalAlign=middle;resizable=0;points=[];" vertex="1" connectable="0" parent="ccMroyFSji1wcShtdkb7-54">
          <mxGeometry x="-0.5495" y="-3" relative="1" as="geometry">
            <mxPoint as="offset" />
          </mxGeometry>
        </mxCell>
        <mxCell id="ccMroyFSji1wcShtdkb7-45" value="if counter == margin delay" style="rhombus;whiteSpace=wrap;html=1;" vertex="1" parent="1">
          <mxGeometry x="880" y="40" width="240" height="40" as="geometry" />
        </mxCell>
        <mxCell id="ccMroyFSji1wcShtdkb7-57" style="edgeStyle=orthogonalEdgeStyle;rounded=0;orthogonalLoop=1;jettySize=auto;html=1;exitX=0.5;exitY=1;exitDx=0;exitDy=0;" edge="1" parent="1" source="ccMroyFSji1wcShtdkb7-51" target="ccMroyFSji1wcShtdkb7-56">
          <mxGeometry relative="1" as="geometry" />
        </mxCell>
        <mxCell id="ccMroyFSji1wcShtdkb7-58" value="Yes" style="edgeLabel;html=1;align=center;verticalAlign=middle;resizable=0;points=[];" vertex="1" connectable="0" parent="ccMroyFSji1wcShtdkb7-57">
          <mxGeometry x="-0.0793" y="1" relative="1" as="geometry">
            <mxPoint as="offset" />
          </mxGeometry>
        </mxCell>
        <mxCell id="ccMroyFSji1wcShtdkb7-68" style="edgeStyle=orthogonalEdgeStyle;rounded=0;orthogonalLoop=1;jettySize=auto;html=1;exitX=1;exitY=0.5;exitDx=0;exitDy=0;entryX=1;entryY=0;entryDx=0;entryDy=0;" edge="1" parent="1" source="ccMroyFSji1wcShtdkb7-51" target="ccMroyFSji1wcShtdkb7-59">
          <mxGeometry relative="1" as="geometry">
            <Array as="points">
              <mxPoint x="1140" y="240" />
              <mxPoint x="1140" y="380" />
              <mxPoint x="1060" y="380" />
            </Array>
          </mxGeometry>
        </mxCell>
        <mxCell id="ccMroyFSji1wcShtdkb7-72" value="No" style="edgeLabel;html=1;align=center;verticalAlign=middle;resizable=0;points=[];" vertex="1" connectable="0" parent="ccMroyFSji1wcShtdkb7-68">
          <mxGeometry x="-0.4226" y="1" relative="1" as="geometry">
            <mxPoint as="offset" />
          </mxGeometry>
        </mxCell>
        <mxCell id="ccMroyFSji1wcShtdkb7-51" value="if counter == &lt;br&gt;exposureDuration&lt;br&gt; + margin" style="rhombus;whiteSpace=wrap;html=1;" vertex="1" parent="1">
          <mxGeometry x="880" y="200" width="240" height="80" as="geometry" />
        </mxCell>
        <mxCell id="ccMroyFSji1wcShtdkb7-60" style="edgeStyle=orthogonalEdgeStyle;rounded=0;orthogonalLoop=1;jettySize=auto;html=1;exitX=0.5;exitY=1;exitDx=0;exitDy=0;entryX=0.5;entryY=0;entryDx=0;entryDy=0;" edge="1" parent="1" source="ccMroyFSji1wcShtdkb7-56" target="ccMroyFSji1wcShtdkb7-59">
          <mxGeometry relative="1" as="geometry" />
        </mxCell>
        <mxCell id="ccMroyFSji1wcShtdkb7-56" value="release camera signals" style="shape=process;whiteSpace=wrap;html=1;backgroundOutline=1;" vertex="1" parent="1">
          <mxGeometry x="880" y="320" width="240" height="40" as="geometry" />
        </mxCell>
        <mxCell id="ccMroyFSji1wcShtdkb7-64" style="edgeStyle=orthogonalEdgeStyle;rounded=0;orthogonalLoop=1;jettySize=auto;html=1;exitX=0.5;exitY=1;exitDx=0;exitDy=0;entryX=0.5;entryY=0;entryDx=0;entryDy=0;" edge="1" parent="1" source="ccMroyFSji1wcShtdkb7-59" target="ccMroyFSji1wcShtdkb7-61">
          <mxGeometry relative="1" as="geometry" />
        </mxCell>
        <mxCell id="ccMroyFSji1wcShtdkb7-67" value="Yes" style="edgeLabel;html=1;align=center;verticalAlign=middle;resizable=0;points=[];" vertex="1" connectable="0" parent="ccMroyFSji1wcShtdkb7-64">
          <mxGeometry x="-0.4583" y="1" relative="1" as="geometry">
            <mxPoint x="-2" y="3" as="offset" />
          </mxGeometry>
        </mxCell>
        <mxCell id="ccMroyFSji1wcShtdkb7-70" style="edgeStyle=orthogonalEdgeStyle;rounded=0;orthogonalLoop=1;jettySize=auto;html=1;exitX=1;exitY=0.5;exitDx=0;exitDy=0;entryX=1;entryY=0;entryDx=0;entryDy=0;" edge="1" parent="1" source="ccMroyFSji1wcShtdkb7-59" target="ccMroyFSji1wcShtdkb7-65">
          <mxGeometry relative="1" as="geometry">
            <Array as="points">
              <mxPoint x="1140" y="440" />
              <mxPoint x="1140" y="580" />
              <mxPoint x="1014" y="580" />
            </Array>
          </mxGeometry>
        </mxCell>
        <mxCell id="ccMroyFSji1wcShtdkb7-71" value="No" style="edgeLabel;html=1;align=center;verticalAlign=middle;resizable=0;points=[];" vertex="1" connectable="0" parent="ccMroyFSji1wcShtdkb7-70">
          <mxGeometry x="-0.6632" relative="1" as="geometry">
            <mxPoint y="28" as="offset" />
          </mxGeometry>
        </mxCell>
        <mxCell id="ccMroyFSji1wcShtdkb7-59" value="if counter == &lt;br&gt;exposureDuration&lt;br&gt; + 2*margin" style="rhombus;whiteSpace=wrap;html=1;" vertex="1" parent="1">
          <mxGeometry x="880" y="400" width="240" height="80" as="geometry" />
        </mxCell>
        <mxCell id="ccMroyFSji1wcShtdkb7-66" style="edgeStyle=orthogonalEdgeStyle;rounded=0;orthogonalLoop=1;jettySize=auto;html=1;exitX=0.5;exitY=1;exitDx=0;exitDy=0;entryX=0.5;entryY=0;entryDx=0;entryDy=0;" edge="1" parent="1" source="ccMroyFSji1wcShtdkb7-61" target="ccMroyFSji1wcShtdkb7-65">
          <mxGeometry relative="1" as="geometry" />
        </mxCell>
        <mxCell id="ccMroyFSji1wcShtdkb7-61" value="turn off Timer5 ID4" style="shape=process;whiteSpace=wrap;html=1;backgroundOutline=1;" vertex="1" parent="1">
          <mxGeometry x="880" y="520" width="240" height="40" as="geometry" />
        </mxCell>
        <mxCell id="ccMroyFSji1wcShtdkb7-65" value="END" style="ellipse;whiteSpace=wrap;html=1;aspect=fixed;fillColor=#000000;fontColor=#FFFFFF;" vertex="1" parent="1">
          <mxGeometry x="980" y="600" width="40" height="40" as="geometry" />
        </mxCell>
      </root>
    </mxGraphModel>
  </diagram>
</mxfile>
